<?xml version="1.0" encoding="UTF-8" standalone="no"?>
<svg
   width="24"
   height="24"
   viewBox="0 0 24 24"
   fill="none"
   version="1.1"
   id="svg1126"
   xmlns="http://www.w3.org/2000/svg"
   xmlns:svg="http://www.w3.org/2000/svg">
  <defs
     id="defs1130" />
  <g
     id="g1288"
     transform="translate(0,0.63360016)">
    <path
       d="M 4.5000001,3.1178613 V 12.617861 H 10.132 c 0.3007,0 0.451,0 0.5718,0.0747 0.1209,0.0746 0.1881,0.2091 0.3226,0.4781 l 0.6972,1.3944 c 0.1345,0.269 0.2017,0.4035 0.3226,0.4781 0.1208,0.0747 0.2711,0.0747 0.5718,0.0747 H 19 c 0.2357,0 0.3536,0 0.4268,-0.0732 0.0732,-0.0732 0.0732,-0.1911 0.0732,-0.4268 V 5.6178613 c 0,-0.2357 0,-0.35355 -0.0732,-0.42678 -0.0732,-0.07322 -0.1911,-0.07322 -0.4268,-0.07322 h -6.382 c -0.3007,0 -0.451,0 -0.5718,-0.07467 -0.1209,-0.07468 -0.1881,-0.20916 -0.3226,-0.47812 l -0.6972,-1.39442 c -0.1345,-0.26896 -0.2017,-0.40344 -0.3226,-0.47812 -0.1208,-0.07467 -0.2711,-0.07467 -0.5718,-0.07467 H 5.0000001 c -0.2357,0 -0.35355,0 -0.42678,0.07322 -0.07322,0.07323 -0.07322,0.19108 -0.07322,0.42678 z"
       fill="#6fd4ff"
       id="path824" />
    <path
       d="M 4.5000003,12.617861 V 3.1178613 c 0,-0.2357 0,-0.35355 0.07322,-0.42678 0.07323,-0.07322 0.19108,-0.07322 0.42678,-0.07322 H 10.132 c 0.3007,0 0.451,0 0.5718,0.07467 0.1209,0.07468 0.1881,0.20916 0.3226,0.47812 l 0.6972,1.39442 c 0.1345,0.26896 0.2017,0.40344 0.3226,0.47812 0.1208,0.07467 0.2711,0.07467 0.5718,0.07467 H 19 c 0.2357,0 0.3536,0 0.4268,0.07322 0.0732,0.07323 0.0732,0.19108 0.0732,0.42678 v 8.9999997 c 0,0.2357 0,0.3536 -0.0732,0.4268 -0.0732,0.0732 -0.1911,0.0732 -0.4268,0.0732 h -6.382 c -0.3007,0 -0.451,0 -0.5718,-0.0747 -0.1209,-0.0746 -0.1881,-0.2091 -0.3226,-0.4781 l -0.6972,-1.3944 c -0.1345,-0.269 -0.2017,-0.4035 -0.3226,-0.4781 -0.1208,-0.0747 -0.2711,-0.0747 -0.5718,-0.0747 z m 0,0 v 7.5"
       stroke="#000000"
       stroke-width="2"
       stroke-linecap="round"
       id="path826" />
  </g>
</svg>
